<svg width="20" height="20" viewBox="0 0 20 20" fill="none" xmlns="http://www.w3.org/2000/svg">
<path fill-rule="evenodd" clip-rule="evenodd" d="M17.7636 2.23623C16.8109 1.28575 15.5202 0.751953 14.1744 0.751953C12.8287 0.751953 11.5379 1.28575 10.5853 2.23623L8.87443 3.94623C8.71277 4.12022 8.62487 4.35013 8.62923 4.58759C8.63359 4.82506 8.72987 5.05158 8.89781 5.21952C9.06575 5.38746 9.29227 5.48374 9.52974 5.4881C9.7672 5.49246 9.99711 5.40456 10.1711 5.2429L11.8819 3.5329C12.4904 2.9258 13.3149 2.58486 14.1744 2.58486C15.034 2.58486 15.8584 2.9258 16.4669 3.5329C16.769 3.83322 17.0085 4.19047 17.1716 4.58398C17.3347 4.97749 17.418 5.39944 17.4169 5.8254C17.4181 6.25136 17.3347 6.67332 17.1716 7.06684C17.0086 7.46036 16.769 7.81761 16.4669 8.1179L13.4661 11.1187C12.2419 12.3437 10.1061 12.3437 8.8811 11.1187C8.67832 10.9166 8.50319 10.6885 8.36027 10.4404C8.23915 10.2296 8.03924 10.0755 7.8045 10.012C7.56977 9.94855 7.31945 9.98095 7.1086 10.1021C6.89775 10.2232 6.74365 10.4231 6.6802 10.6578C6.61675 10.8926 6.64915 11.1429 6.77027 11.3537C6.99277 11.7396 7.2661 12.0971 7.58443 12.4154C8.05475 12.8881 8.61412 13.2629 9.23018 13.5181C9.84624 13.7732 10.5068 13.9038 11.1736 13.9021C11.8404 13.9039 12.501 13.7734 13.1171 13.5182C13.7331 13.263 14.2925 12.8882 14.7628 12.4154L17.7636 9.4154C18.2365 8.94488 18.6114 8.38525 18.8666 7.76888C19.1218 7.15252 19.2522 6.49166 19.2503 5.82456C19.2521 5.15773 19.1216 4.49717 18.8664 3.88109C18.6112 3.26501 18.2364 2.70649 17.7636 2.23623Z" fill="white"/>
<path fill-rule="evenodd" clip-rule="evenodd" d="M9.82918 14.7567L8.11835 16.4675C7.50964 17.0742 6.68527 17.4149 5.82585 17.4149C4.96643 17.4149 4.14206 17.0742 3.53335 16.4675C3.23146 16.1671 2.99208 15.8098 2.82902 15.4163C2.66597 15.0228 2.58247 14.6009 2.58335 14.175C2.58335 13.3092 2.92085 12.495 3.53335 11.8834L6.53418 8.88169C6.88665 8.52996 7.31532 8.26404 7.78701 8.10451C8.25871 7.94498 8.76078 7.89611 9.25439 7.96169C9.74799 8.02727 10.2199 8.20553 10.6336 8.48269C11.0472 8.75985 11.3916 9.12847 11.64 9.56002C11.7 9.66442 11.7799 9.75599 11.8753 9.82949C11.9707 9.903 12.0796 9.957 12.1958 9.98842C12.312 10.0198 12.4333 10.0281 12.5527 10.0126C12.6721 9.99714 12.7873 9.95833 12.8917 9.89835C12.9961 9.83838 13.0877 9.75844 13.1612 9.66308C13.2347 9.56772 13.2887 9.45882 13.3201 9.34259C13.3515 9.22636 13.3597 9.10509 13.3443 8.98568C13.3288 8.86628 13.29 8.75109 13.23 8.64669C12.8409 7.97141 12.3018 7.39465 11.6542 6.961C11.0066 6.52736 10.268 6.24844 9.49545 6.14582C8.72289 6.0432 7.93707 6.11962 7.19875 6.36917C6.46043 6.61873 5.7894 7.03473 5.23752 7.58502L2.23668 10.5859C1.76398 11.0562 1.3892 11.6155 1.13402 12.2316C0.878842 12.8477 0.748325 13.5082 0.750016 14.175C0.750016 15.5309 1.27835 16.8059 2.23668 17.7642C2.70754 18.236 3.26706 18.61 3.88304 18.8647C4.49902 19.1194 5.15929 19.2498 5.82585 19.2484C7.12585 19.2484 8.42502 18.7534 9.41502 17.765L11.1259 16.0542C11.2875 15.8802 11.3754 15.6503 11.3711 15.4128C11.3667 15.1754 11.2704 14.9488 11.1025 14.7809C10.9345 14.613 10.708 14.5167 10.4705 14.5123C10.2331 14.508 10.0032 14.595 9.82918 14.7567Z" fill="white"/>
</svg>
