<svg width="56" height="56" viewBox="0 0 56 56" fill="none" xmlns="http://www.w3.org/2000/svg">
<g filter="url(#filter0_ii_1711_15917)">
<circle cx="28" cy="28" r="28" fill="url(#paint0_linear_1711_15917)"/>
</g>
<g filter="url(#filter1_f_1711_15917)">
<path fill-rule="evenodd" clip-rule="evenodd" d="M28.4253 28.8958C28.2075 28.6325 27.794 28.6325 27.5762 28.8958C26.0285 30.7661 23.9346 31.914 21.6296 31.914C16.8647 31.914 13.002 27.0084 13.002 20.957C13.002 14.9056 16.8647 10 21.6296 10C23.9346 10 26.0285 11.148 27.5762 13.0183C27.794 13.2815 28.2075 13.2815 28.4253 13.0183C29.9729 11.148 32.0668 10 34.3718 10C39.1368 10 42.9995 14.9056 42.9995 20.957C42.9995 27.0084 39.1368 31.914 34.3718 31.914C32.0668 31.914 29.9729 30.7661 28.4253 28.8958Z" fill="#5348C6" fill-opacity="0.19"/>
</g>
<g clip-path="url(#clip0_1711_15917)">
<g filter="url(#filter2_i_1711_15917)">
<path fill-rule="evenodd" clip-rule="evenodd" d="M28.4853 28.1968C28.2665 27.9426 27.8631 27.9426 27.6443 28.1968C26.1953 29.8813 24.2407 30.914 22.0902 30.914C17.6221 30.914 14 26.4561 14 20.957C14 15.4579 17.6221 11 22.0902 11C24.2407 11 26.1953 12.0327 27.6443 13.7172C27.8631 13.9715 28.2665 13.9715 28.4853 13.7172C29.9343 12.0327 31.8889 11 34.0394 11C38.5075 11 42.1296 15.4579 42.1296 20.957C42.1296 26.4561 38.5075 30.914 34.0394 30.914C31.8889 30.914 29.9343 29.8813 28.4853 28.1968Z" fill="white"/>
</g>
<path d="M34.5386 22.3218C36.8786 20.6954 38.8707 19.2831 38.3396 18.519C37.8085 17.7549 35.2914 18.2655 32.9514 19.8919C30.6113 21.5183 29.3344 23.6445 29.8655 24.4086C30.3966 25.1728 32.1985 23.9482 34.5386 22.3218Z" fill="url(#paint1_linear_1711_15917)"/>
<path d="M21.3442 22.3218C19.0042 20.6954 17.0121 19.2831 17.5432 18.519C18.0743 17.7549 20.5914 18.2655 22.9314 19.8919C25.2715 21.5183 26.5484 23.6445 26.0173 24.4086C25.4862 25.1728 23.6843 23.9482 21.3442 22.3218Z" fill="url(#paint2_linear_1711_15917)"/>
<g filter="url(#filter3_i_1711_15917)">
<path d="M30.6592 28.9957C30.6592 30.3586 29.4034 31.0152 27.854 31.0152C26.3046 31.0152 25.0488 30.3586 25.0488 28.9957C25.0488 27.6327 26.3046 26.0774 27.854 26.0774C29.4034 26.0774 30.6592 27.6327 30.6592 28.9957Z" fill="#FF6D6D"/>
</g>
<mask id="mask0_1711_15917" style="mask-type:alpha" maskUnits="userSpaceOnUse" x="25" y="33" width="15" height="8">
<path opacity="0.4" fill-rule="evenodd" clip-rule="evenodd" d="M26.5172 40.348C25.6122 39.6378 25.4542 38.3284 26.1644 37.4233C28.7395 34.1419 31.8553 33.3412 34.3404 33.4621C35.5388 33.5205 36.5586 33.7882 37.2765 34.0377C37.6383 34.1635 37.9321 34.2877 38.1437 34.3849C38.2498 34.4337 38.3359 34.476 38.4005 34.5088C38.4327 34.5252 38.4597 34.5393 38.4811 34.5507L38.509 34.5657L38.5198 34.5716L38.5244 34.5741L38.5265 34.5753C38.5275 34.5758 38.5285 34.5764 37.5188 36.3984L38.5285 34.5764C39.5347 35.134 39.8984 36.4018 39.3407 37.4081C38.7856 38.4097 37.5268 38.7747 36.5228 38.2279C36.5228 38.2279 36.5228 38.2279 36.5228 38.2279C36.5207 38.2268 36.5169 38.2248 36.5113 38.222C36.4931 38.2127 36.4568 38.1947 36.4041 38.1704C36.2981 38.1217 36.1287 38.0494 35.9086 37.9728C35.4624 37.8177 34.8423 37.6576 34.1379 37.6233C32.8173 37.559 31.0753 37.9138 29.4419 39.9953C28.7317 40.9003 27.4223 41.0583 26.5172 40.348Z" fill="url(#paint3_linear_1711_15917)"/>
</mask>
<g mask="url(#mask0_1711_15917)">
<path fill-rule="evenodd" clip-rule="evenodd" d="M26.5172 40.348C25.6122 39.6378 25.4542 38.3284 26.1644 37.4233C28.7395 34.1419 31.8553 33.3412 34.3404 33.4621C35.5388 33.5205 36.5586 33.7882 37.2765 34.0377C37.6383 34.1635 37.9321 34.2877 38.1437 34.3849C38.2498 34.4337 38.3359 34.476 38.4005 34.5088C38.4327 34.5252 38.4597 34.5393 38.4811 34.5507L38.509 34.5657L38.5198 34.5716L38.5244 34.5741L38.5265 34.5753C38.5275 34.5758 38.5285 34.5764 37.5188 36.3984L38.5285 34.5764C39.5347 35.134 39.8984 36.4018 39.3407 37.4081C38.7856 38.4097 37.5268 38.7747 36.5228 38.2279C36.5228 38.2279 36.5228 38.2279 36.5228 38.2279C36.5207 38.2268 36.5169 38.2248 36.5113 38.222C36.4931 38.2127 36.4568 38.1947 36.4041 38.1704C36.2981 38.1217 36.1287 38.0494 35.9086 37.9728C35.4624 37.8177 34.8423 37.6576 34.1379 37.6233C32.8173 37.559 31.0753 37.9138 29.4419 39.9953C28.7317 40.9003 27.4223 41.0583 26.5172 40.348Z" fill="url(#paint4_linear_1711_15917)"/>
<ellipse cx="32.8199" cy="39.1605" rx="5" ry="3.31183" transform="rotate(169.829 32.8199 39.1605)" fill="black"/>
<rect x="29" y="33.5812" width="3" height="3" rx="0.6" transform="rotate(-5.65049 29 33.5812)" fill="#D9D9D9"/>
<rect x="31.7891" y="31.2954" width="3" height="5" rx="0.6" transform="rotate(-5.65049 31.7891 31.2954)" fill="#D9D9D9"/>
</g>
</g>
<defs>
<filter id="filter0_ii_1711_15917" x="0" y="-5" width="56" height="65" filterUnits="userSpaceOnUse" color-interpolation-filters="sRGB">
<feFlood flood-opacity="0" result="BackgroundImageFix"/>
<feBlend mode="normal" in="SourceGraphic" in2="BackgroundImageFix" result="shape"/>
<feColorMatrix in="SourceAlpha" type="matrix" values="0 0 0 0 0 0 0 0 0 0 0 0 0 0 0 0 0 0 127 0" result="hardAlpha"/>
<feOffset dy="4"/>
<feGaussianBlur stdDeviation="3"/>
<feComposite in2="hardAlpha" operator="arithmetic" k2="-1" k3="1"/>
<feColorMatrix type="matrix" values="0 0 0 0 0.439216 0 0 0 0 0.376471 0 0 0 0 1 0 0 0 0.9 0"/>
<feBlend mode="normal" in2="shape" result="effect1_innerShadow_1711_15917"/>
<feColorMatrix in="SourceAlpha" type="matrix" values="0 0 0 0 0 0 0 0 0 0 0 0 0 0 0 0 0 0 127 0" result="hardAlpha"/>
<feOffset dy="-5"/>
<feGaussianBlur stdDeviation="3.5"/>
<feComposite in2="hardAlpha" operator="arithmetic" k2="-1" k3="1"/>
<feColorMatrix type="matrix" values="0 0 0 0 0.350802 0 0 0 0 0.279167 0 0 0 0 1 0 0 0 1 0"/>
<feBlend mode="normal" in2="effect1_innerShadow_1711_15917" result="effect2_innerShadow_1711_15917"/>
</filter>
<filter id="filter1_f_1711_15917" x="5.40195" y="2.4" width="45.1976" height="37.1141" filterUnits="userSpaceOnUse" color-interpolation-filters="sRGB">
<feFlood flood-opacity="0" result="BackgroundImageFix"/>
<feBlend mode="normal" in="SourceGraphic" in2="BackgroundImageFix" result="shape"/>
<feGaussianBlur stdDeviation="3.8" result="effect1_foregroundBlur_1711_15917"/>
</filter>
<filter id="filter2_i_1711_15917" x="14" y="9" width="28.1294" height="21.9141" filterUnits="userSpaceOnUse" color-interpolation-filters="sRGB">
<feFlood flood-opacity="0" result="BackgroundImageFix"/>
<feBlend mode="normal" in="SourceGraphic" in2="BackgroundImageFix" result="shape"/>
<feColorMatrix in="SourceAlpha" type="matrix" values="0 0 0 0 0 0 0 0 0 0 0 0 0 0 0 0 0 0 127 0" result="hardAlpha"/>
<feOffset dy="-2"/>
<feGaussianBlur stdDeviation="2"/>
<feComposite in2="hardAlpha" operator="arithmetic" k2="-1" k3="1"/>
<feColorMatrix type="matrix" values="0 0 0 0 0.32549 0 0 0 0 0.286275 0 0 0 0 0.690196 0 0 0 0.36 0"/>
<feBlend mode="normal" in2="shape" result="effect1_innerShadow_1711_15917"/>
</filter>
<filter id="filter3_i_1711_15917" x="25.0488" y="24.0774" width="5.61035" height="6.93787" filterUnits="userSpaceOnUse" color-interpolation-filters="sRGB">
<feFlood flood-opacity="0" result="BackgroundImageFix"/>
<feBlend mode="normal" in="SourceGraphic" in2="BackgroundImageFix" result="shape"/>
<feColorMatrix in="SourceAlpha" type="matrix" values="0 0 0 0 0 0 0 0 0 0 0 0 0 0 0 0 0 0 127 0" result="hardAlpha"/>
<feOffset dy="-2"/>
<feGaussianBlur stdDeviation="1"/>
<feComposite in2="hardAlpha" operator="arithmetic" k2="-1" k3="1"/>
<feColorMatrix type="matrix" values="0 0 0 0 0.858333 0 0 0 0 0.303993 0 0 0 0 0.303993 0 0 0 1 0"/>
<feBlend mode="normal" in2="shape" result="effect1_innerShadow_1711_15917"/>
</filter>
<linearGradient id="paint0_linear_1711_15917" x1="28" y1="0" x2="28" y2="56" gradientUnits="userSpaceOnUse">
<stop stop-color="#9285FF"/>
<stop offset="1" stop-color="#6756FF"/>
</linearGradient>
<linearGradient id="paint1_linear_1711_15917" x1="32.9909" y1="19.8644" x2="34.6467" y2="22.2467" gradientUnits="userSpaceOnUse">
<stop stop-color="#32373D"/>
<stop offset="1" stop-color="#1A1D25"/>
</linearGradient>
<linearGradient id="paint2_linear_1711_15917" x1="22.8919" y1="19.8644" x2="21.2361" y2="22.2467" gradientUnits="userSpaceOnUse">
<stop stop-color="#32373D"/>
<stop offset="1" stop-color="#1A1D25"/>
</linearGradient>
<linearGradient id="paint3_linear_1711_15917" x1="32.3114" y1="43.5584" x2="33.0305" y2="33.0355" gradientUnits="userSpaceOnUse">
<stop stop-color="#4D44A6"/>
<stop offset="1" stop-color="#2B284F"/>
</linearGradient>
<linearGradient id="paint4_linear_1711_15917" x1="31.4692" y1="33.2851" x2="35.0219" y2="42.4845" gradientUnits="userSpaceOnUse">
<stop stop-color="#161332"/>
<stop offset="1" stop-color="#2B284F"/>
</linearGradient>
<clipPath id="clip0_1711_15917">
<rect width="28.1292" height="30" fill="white" transform="translate(13.9355 11)"/>
</clipPath>
</defs>
</svg>
